2.2Hzhigh3min_grf.mot
version=1
nRows=15
nColumns 19
inDegrees=yes
endheader
time	1_ground_force_vx	1_ground_force_vy	1_ground_force_vz	1_ground_force_px	1_ground_force_py	1_ground_force_pz	1_ground_torque_x	1_ground_torque_y	1_ground_torque_z	2_ground_force_vx	2_ground_force_vy	2_ground_force_vz	2_ground_force_px	2_ground_force_py	2_ground_force_pz	2_ground_torque_x	2_ground_torque_y	2_ground_torque_z
            2.502500	          -21.439257	         1158.963490	          -88.296846	           -0.221288	            0.006388	           -0.443232	            0.012282	           -0.663947	            0.050583	           35.783815	         1484.665026	          132.972426	           -0.259584	            0.005614	           -0.716611	            0.087503	            3.630471	            0.325159
            2.503000	          -20.757647	         1165.821915	          -90.195121	           -0.221329	            0.006388	           -0.443271	           -0.001973	            0.110820	           -0.008574	           35.331154	         1493.316581	          133.519688	           -0.259764	            0.005613	           -0.716583	            0.090403	            3.820991	            0.341641
            2.503500	          -19.388371	         1171.959729	          -92.144062	           -0.221264	            0.006389	           -0.443538	           -0.013024	            0.787280	           -0.061899	           34.739478	         1501.597794	          134.534993	           -0.259785	            0.005613	           -0.716622	            0.081835	            3.537267	            0.316920
            2.504000	          -17.741309	         1179.354435	          -92.896012	           -0.221331	            0.006388	           -0.443341	           -0.014584	            0.969463	           -0.076363	           34.057534	         1508.956947	          135.781670	           -0.259875	            0.005613	           -0.716642	            0.069684	            3.087421	            0.277818
            2.504500	          -16.733136	         1186.383266	          -92.501523	           -0.221483	            0.006388	           -0.443360	           -0.006447	            0.457096	           -0.035639	           33.933895	         1517.422258	          137.266728	           -0.259929	            0.005613	           -0.716645	            0.062528	            2.796058	            0.252933
            2.505000	          -16.228631	         1193.230842	          -91.877279	           -0.221616	            0.006388	           -0.443382	            0.003793	           -0.278870	            0.021473	           34.654888	         1525.522211	          138.750083	           -0.260022	            0.005613	           -0.716710	            0.065326	            2.875675	            0.261550
            2.505500	          -14.990300	         1200.078214	          -91.117283	           -0.221736	            0.006389	           -0.443438	            0.003908	           -0.312890	            0.023757	           35.563423	         1533.621913	          140.561849	           -0.260154	            0.005612	           -0.716636	            0.074130	            3.196731	            0.292992
            2.506000	          -14.441401	         1206.748181	          -91.090049	           -0.221769	            0.006389	           -0.443474	           -0.001291	            0.107845	           -0.008141	           36.613885	         1541.174416	          140.963754	           -0.260359	            0.005611	           -0.716570	            0.081179	            3.417050	            0.312541
            2.506500	          -13.162039	         1212.522435	          -92.352466	           -0.221830	            0.006389	           -0.443560	           -0.010712	            0.986787	           -0.075159	           36.960955	         1548.908538	          141.413552	           -0.260445	            0.005611	           -0.716646	            0.079558	            3.334002	            0.304391
            2.507000	          -11.792356	         1218.299067	          -94.165381	           -0.221815	            0.006390	           -0.443736	           -0.015041	            1.553913	           -0.120106	           36.371609	         1556.455867	          141.675379	           -0.260543	            0.005610	           -0.716533	            0.069816	            2.987654	            0.271949
            2.507500	          -10.419893	         1224.431131	          -94.830356	           -0.221922	            0.006390	           -0.443734	           -0.012623	            1.483306	           -0.114880	           35.876379	         1563.999943	          142.875728	           -0.260624	            0.005610	           -0.716542	            0.059026	            2.573174	            0.235067
            2.508000	           -9.597498	         1230.923729	          -95.446552	           -0.222010	            0.006390	           -0.443778	           -0.006804	            0.872610	           -0.067663	           35.849417	         1571.547796	          143.559646	           -0.260661	            0.005610	           -0.716605	            0.055846	            2.448138	            0.223635
            2.508500	           -8.954865	         1237.590175	          -94.594147	           -0.222165	            0.006389	           -0.443624	           -0.002095	            0.289546	           -0.022131	           36.062353	         1577.620446	          144.989087	           -0.260876	            0.005609	           -0.716540	            0.061021	            2.669474	            0.245334
            2.509000	           -8.311252	         1242.632897	          -93.473555	           -0.222201	            0.006390	           -0.443817	           -0.002287	            0.341925	           -0.025720	           37.159412	         1585.354095	          146.330192	           -0.260943	            0.005609	           -0.716560	            0.069476	            2.964094	            0.273590
            2.509500	           -7.714575	         1249.299531	          -92.666888	           -0.222248	            0.006390	           -0.443747	           -0.005918	            0.958423	           -0.071091	           38.494394	         1591.986134	          146.963311	           -0.261092	            0.005608	           -0.716489	            0.075046	            3.103625	            0.286509
